<svg width="80" height="94" viewBox="0 0 80 94" fill="none" xmlns="http://www.w3.org/2000/svg">
<path d="M40 45C52.625 45 62.8571 34.9277 62.8571 22.5C62.8571 10.0723 52.625 0 40 0C27.375 0 17.1429 10.0723 17.1429 22.5C17.1429 34.9277 27.375 45 40 45ZM56 50.625H53.0179C49.0536 52.418 44.6429 53.4375 40 53.4375C35.3571 53.4375 30.9643 52.418 26.9821 50.625H24C10.75 50.625 0 61.207 0 74.25V81.5625C0 86.2207 3.83929 90 8.57143 90H71.4286C76.1607 90 80 86.2207 80 81.5625V74.25C80 61.207 69.25 50.625 56 50.625Z" fill="black"/>
<path d="M56.5914 72.7034L48.6954 66.3304C48.1497 65.8899 47.2672 65.8899 46.7272 66.3304L45.4151 67.3894C44.8694 67.8299 44.8694 68.5422 45.4151 68.978L51.0062 73.5L45.4093 78.0173C44.8636 78.4578 44.8636 79.1701 45.4093 79.6059L46.7214 80.6696C47.2672 81.1101 48.1497 81.1101 48.6896 80.6696L56.5856 74.2966C57.1372 73.8561 57.1372 73.1439 56.5914 72.7034Z" fill="#F9F9F9"/>
<path d="M44.656 61.272L38.176 88.344H34.888L41.368 61.272H44.656Z" fill="#F9F9F9"/>
</svg>
