<svg width="22" height="17" viewBox="0 0 22 17" fill="none" xmlns="http://www.w3.org/2000/svg">
<path d="M8.86111 7.63576C10.0757 6.96444 10.7097 5.94863 10.7097 4.3675C10.7097 1.2494 8.7007 0.489746 6.38229 0.489746H0V16.1421H6.56181C9.02153 16.1421 11.3323 14.7774 11.3323 11.5974C11.3323 9.63205 10.5264 8.179 8.86111 7.63576ZM2.97535 3.16177H5.76736C6.84062 3.16177 7.80694 3.51068 7.80694 4.95048C7.80694 6.27987 7.05451 6.81428 5.99271 6.81428H2.97535V3.16177ZM6.15694 13.4833H2.97535V9.17273H6.21806C7.52812 9.17273 8.35694 9.8043 8.35694 11.4075C8.35694 12.9886 7.36771 13.4833 6.15694 13.4833ZM19.8497 2.85261H14.3611V1.31123H19.8497V2.85261ZM22 10.639C22 7.28685 20.3042 4.49116 17.2295 4.49116C14.2427 4.49116 12.2146 7.0881 12.2146 10.4889C12.2146 14.0177 14.1358 16.438 17.2295 16.438C19.5708 16.438 21.0872 15.219 21.8167 12.6265H19.441C19.1851 13.5937 18.1309 14.106 17.3135 14.106C15.7361 14.106 14.9073 13.0372 14.9073 11.222H21.9771C21.9885 11.0365 22 10.8378 22 10.639ZM14.9111 9.26106C14.999 7.77267 15.8545 6.84078 17.1455 6.84078C18.4976 6.84078 19.1774 7.75942 19.292 9.26106H14.9111Z" fill="#F9F9F9"/>
</svg>
