<svg width="72" height="302" viewBox="0 0 72 302" fill="none" xmlns="http://www.w3.org/2000/svg">
<circle cx="2.90244" cy="2.90244" r="2.90244" fill="#F9F9F9"/>
<circle cx="41.6017" cy="2.90244" r="2.90244" fill="#F9F9F9"/>
<circle cx="2.90244" cy="35.7967" r="2.90244" fill="#F9F9F9"/>
<circle cx="41.6017" cy="35.7967" r="2.90244" fill="#F9F9F9"/>
<circle cx="2.90244" cy="68.6911" r="2.90244" fill="#F9F9F9"/>
<circle cx="41.6017" cy="68.6911" r="2.90244" fill="#F9F9F9"/>
<circle cx="2.90244" cy="101.585" r="2.90244" fill="#F9F9F9"/>
<circle cx="41.6017" cy="101.585" r="2.90244" fill="#F9F9F9"/>
<circle cx="2.90244" cy="134.48" r="2.90244" fill="#F9F9F9"/>
<circle cx="41.6017" cy="134.48" r="2.90244" fill="#F9F9F9"/>
<circle cx="2.90244" cy="167.374" r="2.90244" fill="#F9F9F9"/>
<circle cx="41.6017" cy="167.374" r="2.90244" fill="#F9F9F9"/>
<circle cx="2.90244" cy="200.268" r="2.90244" fill="#F9F9F9"/>
<circle cx="41.6017" cy="200.268" r="2.90244" fill="#F9F9F9"/>
<circle cx="2.90244" cy="233.163" r="2.90244" fill="#F9F9F9"/>
<circle cx="41.6017" cy="233.163" r="2.90244" fill="#F9F9F9"/>
<circle cx="2.90244" cy="266.057" r="2.90244" fill="#F9F9F9"/>
<circle cx="41.6017" cy="266.057" r="2.90244" fill="#F9F9F9"/>
<circle cx="2.90244" cy="298.951" r="2.90244" fill="#F9F9F9"/>
<circle cx="41.6017" cy="298.951" r="2.90244" fill="#F9F9F9"/>
</svg>
