<svg width="178" height="269" viewBox="0 0 178 269" fill="none" xmlns="http://www.w3.org/2000/svg">
<circle cx="2.90244" cy="2.90244" r="2.90244" fill="#F9F9F9"/>
<circle cx="41.6017" cy="2.90244" r="2.90244" fill="#F9F9F9"/>
<circle cx="80.3008" cy="2.90244" r="2.90244" fill="#F9F9F9"/>
<circle cx="119" cy="2.90244" r="2.90244" fill="#F9F9F9"/>
<circle cx="157.699" cy="2.90244" r="2.90244" fill="#F9F9F9"/>
<circle cx="2.90244" cy="35.7967" r="2.90244" fill="#F9F9F9"/>
<circle cx="41.6017" cy="35.7967" r="2.90244" fill="#F9F9F9"/>
<circle cx="80.3008" cy="35.7967" r="2.90244" fill="#F9F9F9"/>
<circle cx="119" cy="35.7967" r="2.90244" fill="#F9F9F9"/>
<circle cx="157.699" cy="35.7967" r="2.90244" fill="#F9F9F9"/>
<circle cx="2.90244" cy="68.691" r="2.90244" fill="#F9F9F9"/>
<circle cx="41.6017" cy="68.691" r="2.90244" fill="#F9F9F9"/>
<circle cx="80.3008" cy="68.691" r="2.90244" fill="#F9F9F9"/>
<circle cx="119" cy="68.691" r="2.90244" fill="#F9F9F9"/>
<circle cx="157.699" cy="68.691" r="2.90244" fill="#F9F9F9"/>
<circle cx="2.90244" cy="101.585" r="2.90244" fill="#F9F9F9"/>
<circle cx="41.6017" cy="101.585" r="2.90244" fill="#F9F9F9"/>
<circle cx="80.3008" cy="101.585" r="2.90244" fill="#F9F9F9"/>
<circle cx="119" cy="101.585" r="2.90244" fill="#F9F9F9"/>
<circle cx="157.699" cy="101.585" r="2.90244" fill="#F9F9F9"/>
<circle cx="2.90244" cy="134.48" r="2.90244" fill="#F9F9F9"/>
<circle cx="41.6017" cy="134.48" r="2.90244" fill="#F9F9F9"/>
<circle cx="80.3008" cy="134.48" r="2.90244" fill="#F9F9F9"/>
<circle cx="119" cy="134.48" r="2.90244" fill="#F9F9F9"/>
<circle cx="157.699" cy="134.48" r="2.90244" fill="#F9F9F9"/>
<circle cx="2.90244" cy="167.374" r="2.90244" fill="#F9F9F9"/>
<circle cx="41.6017" cy="167.374" r="2.90244" fill="#F9F9F9"/>
<circle cx="80.3008" cy="167.374" r="2.90244" fill="#F9F9F9"/>
<circle cx="119" cy="167.374" r="2.90244" fill="#F9F9F9"/>
<circle cx="157.699" cy="167.374" r="2.90244" fill="#F9F9F9"/>
<circle cx="2.90244" cy="200.268" r="2.90244" fill="#F9F9F9"/>
<circle cx="41.6017" cy="200.268" r="2.90244" fill="#F9F9F9"/>
<circle cx="80.3008" cy="200.268" r="2.90244" fill="#F9F9F9"/>
<circle cx="119" cy="200.268" r="2.90244" fill="#F9F9F9"/>
<circle cx="157.699" cy="200.268" r="2.90244" fill="#F9F9F9"/>
<circle cx="2.90244" cy="233.163" r="2.90244" fill="#F9F9F9"/>
<circle cx="41.6017" cy="233.163" r="2.90244" fill="#F9F9F9"/>
<circle cx="80.3008" cy="233.163" r="2.90244" fill="#F9F9F9"/>
<circle cx="119" cy="233.163" r="2.90244" fill="#F9F9F9"/>
<circle cx="157.699" cy="233.163" r="2.90244" fill="#F9F9F9"/>
<circle cx="80.3008" cy="266.057" r="2.90244" fill="#F9F9F9"/>
<circle cx="119" cy="266.057" r="2.90244" fill="#F9F9F9"/>
<circle cx="157.699" cy="266.057" r="2.90244" fill="#F9F9F9"/>
</svg>
