<svg width="238" height="273" viewBox="0 0 238 273" fill="none" xmlns="http://www.w3.org/2000/svg">
<circle cx="2.90244" cy="6.79673" r="2.90244" fill="#F9F9F9"/>
<circle cx="41.6016" cy="6.79673" r="2.90244" fill="#F9F9F9"/>
<circle cx="80.3008" cy="6.79673" r="2.90244" fill="#F9F9F9"/>
<circle cx="119" cy="6.79673" r="2.90244" fill="#F9F9F9"/>
<circle cx="157.699" cy="6.79673" r="2.90244" fill="#F9F9F9"/>
<circle cx="196.398" cy="6.79673" r="2.90244" fill="#F9F9F9"/>
<circle cx="235.098" cy="6.79673" r="2.90244" fill="#F9F9F9"/>
<circle cx="2.90244" cy="39.691" r="2.90244" fill="#F9F9F9"/>
<circle cx="41.6016" cy="39.691" r="2.90244" fill="#F9F9F9"/>
<circle cx="80.3008" cy="39.691" r="2.90244" fill="#F9F9F9"/>
<circle cx="119" cy="39.691" r="2.90244" fill="#F9F9F9"/>
<circle cx="157.699" cy="39.691" r="2.90244" fill="#F9F9F9"/>
<circle cx="196.398" cy="39.691" r="2.90244" fill="#F9F9F9"/>
<circle cx="235.098" cy="39.691" r="2.90244" fill="#F9F9F9"/>
<circle cx="2.90244" cy="72.5853" r="2.90244" fill="#F9F9F9"/>
<circle cx="41.6016" cy="72.5853" r="2.90244" fill="#F9F9F9"/>
<circle cx="80.3008" cy="72.5853" r="2.90244" fill="#F9F9F9"/>
<circle cx="119" cy="72.5853" r="2.90244" fill="#F9F9F9"/>
<circle cx="157.699" cy="72.5853" r="2.90244" fill="#F9F9F9"/>
<circle cx="196.398" cy="72.5853" r="2.90244" fill="#F9F9F9"/>
<circle cx="235.098" cy="72.5853" r="2.90244" fill="#F9F9F9"/>
<circle cx="2.90244" cy="105.48" r="2.90244" fill="#F9F9F9"/>
<circle cx="41.6016" cy="105.48" r="2.90244" fill="#F9F9F9"/>
<circle cx="80.3008" cy="105.48" r="2.90244" fill="#F9F9F9"/>
<circle cx="119" cy="105.48" r="2.90244" fill="#F9F9F9"/>
<circle cx="157.699" cy="105.48" r="2.90244" fill="#F9F9F9"/>
<circle cx="196.398" cy="105.48" r="2.90244" fill="#F9F9F9"/>
<circle cx="235.098" cy="105.48" r="2.90244" fill="#F9F9F9"/>
<circle cx="2.90244" cy="138.374" r="2.90244" fill="#F9F9F9"/>
<circle cx="41.6016" cy="138.374" r="2.90244" fill="#F9F9F9"/>
<circle cx="80.3008" cy="138.374" r="2.90244" fill="#F9F9F9"/>
<circle cx="119" cy="138.374" r="2.90244" fill="#F9F9F9"/>
<circle cx="157.699" cy="138.374" r="2.90244" fill="#F9F9F9"/>
<circle cx="196.398" cy="138.374" r="2.90244" fill="#F9F9F9"/>
<circle cx="235.098" cy="138.374" r="2.90244" fill="#F9F9F9"/>
<circle cx="2.90244" cy="171.268" r="2.90244" fill="#F9F9F9"/>
<circle cx="41.6016" cy="171.268" r="2.90244" fill="#F9F9F9"/>
<circle cx="80.3008" cy="171.268" r="2.90244" fill="#F9F9F9"/>
<circle cx="119" cy="171.268" r="2.90244" fill="#F9F9F9"/>
<circle cx="157.699" cy="171.268" r="2.90244" fill="#F9F9F9"/>
<circle cx="196.398" cy="171.268" r="2.90244" fill="#F9F9F9"/>
<circle cx="235.098" cy="171.268" r="2.90244" fill="#F9F9F9"/>
<circle cx="41.6016" cy="204.163" r="2.90244" fill="#F9F9F9"/>
<circle cx="80.3008" cy="204.163" r="2.90244" fill="#F9F9F9"/>
<circle cx="119" cy="204.163" r="2.90244" fill="#F9F9F9"/>
<circle cx="157.699" cy="204.163" r="2.90244" fill="#F9F9F9"/>
<circle cx="196.398" cy="204.163" r="2.90244" fill="#F9F9F9"/>
<circle cx="235.098" cy="204.163" r="2.90244" fill="#F9F9F9"/>
<circle cx="41.6016" cy="237.057" r="2.90244" fill="#F9F9F9"/>
<circle cx="80.3008" cy="237.057" r="2.90244" fill="#F9F9F9"/>
<circle cx="119" cy="237.057" r="2.90244" fill="#F9F9F9"/>
<circle cx="157.699" cy="237.057" r="2.90244" fill="#F9F9F9"/>
<circle cx="196.398" cy="237.057" r="2.90244" fill="#F9F9F9"/>
<circle cx="235.098" cy="237.057" r="2.90244" fill="#F9F9F9"/>
<circle cx="2.90244" cy="269.951" r="2.90244" fill="#F9F9F9"/>
<circle cx="41.6016" cy="269.951" r="2.90244" fill="#F9F9F9"/>
<circle cx="80.3008" cy="269.951" r="2.90244" fill="#F9F9F9"/>
<circle cx="119" cy="269.951" r="2.90244" fill="#F9F9F9"/>
<circle cx="157.699" cy="269.951" r="2.90244" fill="#F9F9F9"/>
<circle cx="196.398" cy="269.951" r="2.90244" fill="#F9F9F9"/>
<circle cx="235.098" cy="269.951" r="2.90244" fill="#F9F9F9"/>
</svg>
