<svg width="80" height="94" viewBox="0 0 80 94" fill="none" xmlns="http://www.w3.org/2000/svg">
<path d="M40 45C52.625 45 62.8571 34.9277 62.8571 22.5C62.8571 10.0723 52.625 0 40 0C27.375 0 17.1429 10.0723 17.1429 22.5C17.1429 34.9277 27.375 45 40 45ZM56 50.625H53.0179C49.0536 52.418 44.6429 53.4375 40 53.4375C35.3571 53.4375 30.9643 52.418 26.9821 50.625H24C10.75 50.625 0 61.207 0 74.25V81.5625C0 86.2207 3.83929 90 8.57143 90H71.4286C76.1607 90 80 86.2207 80 81.5625V74.25C80 61.207 69.25 50.625 56 50.625Z" fill="black"/>
<path d="M23.4086 72.7034L31.3046 66.3304C31.8503 65.8899 32.7328 65.8899 33.2728 66.3304L34.5849 67.3894C35.1306 67.8299 35.1306 68.5422 34.5849 68.978L28.9938 73.5L34.5907 78.0173C35.1364 78.4578 35.1364 79.1701 34.5907 79.6059L33.2786 80.6696C32.7328 81.1101 31.8503 81.1101 31.3104 80.6696L23.4144 74.2966C22.8628 73.8561 22.8628 73.1439 23.4086 72.7034Z" fill="#F9F9F9"/>
<path d="M44.656 61.272L38.176 88.344H34.888L41.368 61.272H44.656Z" fill="#F9F9F9"/>
</svg>
