<svg width="30" height="30" viewBox="0 0 30 30" fill="none" xmlns="http://www.w3.org/2000/svg">
<path d="M10.0343 23.528C10.0343 23.6488 9.89516 23.7454 9.71976 23.7454C9.52016 23.7636 9.38105 23.6669 9.38105 23.528C9.38105 23.4072 9.52016 23.3106 9.69556 23.3106C9.87702 23.2925 10.0343 23.3891 10.0343 23.528ZM8.15323 23.2562C8.11089 23.377 8.23186 23.5159 8.41331 23.5522C8.57056 23.6126 8.75202 23.5522 8.78831 23.4314C8.8246 23.3106 8.70968 23.1717 8.52823 23.1173C8.37097 23.075 8.19556 23.1354 8.15323 23.2562ZM10.8266 23.1536C10.6512 23.1958 10.5302 23.3106 10.5484 23.4495C10.5665 23.5703 10.7238 23.6488 10.9052 23.6065C11.0806 23.5642 11.2016 23.4495 11.1835 23.3287C11.1653 23.214 11.002 23.1354 10.8266 23.1536ZM14.8065 0.00976562C6.41734 0.00976562 0 6.36948 0 14.7464C0 21.4443 4.22177 27.1759 10.252 29.1932C11.0262 29.3321 11.2984 28.8549 11.2984 28.4624C11.2984 28.0879 11.2802 26.0224 11.2802 24.7541C11.2802 24.7541 7.04637 25.66 6.15726 22.9542C6.15726 22.9542 5.46774 21.1967 4.47581 20.7437C4.47581 20.7437 3.09073 19.7955 4.57258 19.8137C4.57258 19.8137 6.07863 19.9344 6.90726 21.3719C8.23185 23.7032 10.4516 23.0328 11.3165 22.6341C11.4556 21.6678 11.8488 20.9974 12.2843 20.5988C8.90323 20.2243 5.49194 19.7351 5.49194 13.925C5.49194 12.2641 5.95161 11.4307 6.91935 10.3677C6.7621 9.97512 6.24798 8.35651 7.07661 6.2668C8.34073 5.87423 11.25 7.8975 11.25 7.8975C12.4597 7.55928 13.7601 7.38413 15.0484 7.38413C16.3367 7.38413 17.6371 7.55928 18.8468 7.8975C18.8468 7.8975 21.756 5.86819 23.0202 6.2668C23.8488 8.36255 23.3347 9.97512 23.1774 10.3677C24.1452 11.4367 24.7379 12.2702 24.7379 13.925C24.7379 19.7533 21.1754 20.2183 17.7944 20.5988C18.3508 21.0759 18.8226 21.9819 18.8226 23.4012C18.8226 25.4365 18.8044 27.955 18.8044 28.4503C18.8044 28.8429 19.0827 29.32 19.8508 29.1811C25.8992 27.1759 30 21.4443 30 14.7464C30 6.36948 23.1956 0.00976562 14.8065 0.00976562ZM5.87903 20.8404C5.8004 20.9008 5.81855 21.0397 5.92137 21.1544C6.01815 21.2511 6.15726 21.2934 6.23589 21.2148C6.31452 21.1544 6.29637 21.0155 6.19355 20.9008C6.09677 20.8041 5.95766 20.7619 5.87903 20.8404ZM5.22581 20.3512C5.18347 20.4297 5.24395 20.5263 5.36492 20.5867C5.46169 20.6471 5.58266 20.629 5.625 20.5444C5.66734 20.4659 5.60685 20.3693 5.48589 20.3089C5.36492 20.2727 5.26815 20.2908 5.22581 20.3512ZM7.18548 22.5013C7.08871 22.5798 7.125 22.761 7.26411 22.8757C7.40323 23.0146 7.57863 23.0328 7.65726 22.9361C7.73589 22.8576 7.6996 22.6764 7.57863 22.5617C7.44556 22.4228 7.26411 22.4046 7.18548 22.5013ZM6.49597 21.6135C6.39919 21.6739 6.39919 21.8309 6.49597 21.9698C6.59274 22.1087 6.75605 22.1691 6.83468 22.1087C6.93145 22.0302 6.93145 21.8732 6.83468 21.7342C6.75 21.5953 6.59274 21.5349 6.49597 21.6135Z" fill="#F9F9F9"/>
</svg>
