<svg width="23" height="21" viewBox="0 0 23 21" fill="none" xmlns="http://www.w3.org/2000/svg">
<path d="M11.0086 5.48453C7.88538 5.48453 5.36618 7.7503 5.36618 10.5593C5.36618 13.3684 7.88538 15.6341 11.0086 15.6341C14.1318 15.6341 16.651 13.3684 16.651 10.5593C16.651 7.7503 14.1318 5.48453 11.0086 5.48453ZM11.0086 13.8586C8.99029 13.8586 7.34029 12.379 7.34029 10.5593C7.34029 8.73965 8.98538 7.26005 11.0086 7.26005C13.0318 7.26005 14.6769 8.73965 14.6769 10.5593C14.6769 12.379 13.0269 13.8586 11.0086 13.8586ZM18.1979 5.27695C18.1979 5.93504 17.6086 6.46063 16.8818 6.46063C16.1501 6.46063 15.5657 5.93062 15.5657 5.27695C15.5657 4.62328 16.155 4.09327 16.8818 4.09327C17.6086 4.09327 18.1979 4.62328 18.1979 5.27695ZM21.9349 6.47829C21.8514 4.8927 21.4488 3.48818 20.1572 2.33101C18.8706 1.17383 17.309 0.811661 15.5461 0.732161C13.7291 0.63941 8.28314 0.63941 6.46618 0.732161C4.70815 0.807245 3.14654 1.16941 1.85502 2.32659C0.563504 3.48377 0.165737 4.88828 0.0773437 6.47388C-0.0257812 8.10806 -0.0257812 13.0062 0.0773437 14.6404C0.160826 16.226 0.563504 17.6305 1.85502 18.7876C3.14654 19.9448 4.70323 20.307 6.46618 20.3865C8.28314 20.4792 13.7291 20.4792 15.5461 20.3865C17.309 20.3114 18.8706 19.9492 20.1572 18.7876C21.4439 17.6305 21.8465 16.226 21.9349 14.6404C22.038 13.0062 22.038 8.11247 21.9349 6.47829ZM19.5876 16.3938C19.2046 17.2595 18.4631 17.9264 17.4956 18.2753C16.047 18.7921 12.6095 18.6728 11.0086 18.6728C9.4077 18.6728 5.96529 18.7876 4.52154 18.2753C3.55904 17.9308 2.81752 17.2639 2.42957 16.3938C1.85502 15.0909 1.98761 11.9992 1.98761 10.5593C1.98761 9.11948 1.85993 6.02337 2.42957 4.72486C2.81261 3.85919 3.55413 3.19226 4.52154 2.84334C5.9702 2.32659 9.4077 2.44584 11.0086 2.44584C12.6095 2.44584 16.0519 2.33101 17.4956 2.84334C18.4581 3.18785 19.1997 3.85477 19.5876 4.72486C20.1622 6.02779 20.0296 9.11948 20.0296 10.5593C20.0296 11.9992 20.1622 15.0953 19.5876 16.3938Z" fill="#F9F9F9"/>
</svg>
