<svg width="38" height="41" viewBox="0 0 38 41" fill="none" xmlns="http://www.w3.org/2000/svg">
<path fill-rule="evenodd" clip-rule="evenodd" d="M25.6642 3.29923C22.0634 -1.09974 15.3366 -1.09975 11.7357 3.29923L2.03573 15.1491C-0.785791 18.596 -0.661399 23.5883 2.32828 26.8904L12.0282 37.6039C15.6009 41.5499 21.7991 41.5499 25.3717 37.6039L35.0716 26.8904C38.0613 23.5883 38.1857 18.596 35.3642 15.1491L25.6642 3.29923ZM25.5933 12.0404C22.0042 7.89359 15.5722 7.89359 11.983 12.0404L9.70932 14.6675C6.67012 18.179 6.80174 23.4263 10.0132 26.781L12.2869 29.1562C15.8307 32.858 21.7457 32.858 25.2894 29.1562L27.5631 26.781C30.7746 23.4263 30.9062 18.179 27.867 14.6675L25.5933 12.0404Z" fill="#F9F9F9"/>
</svg>
