<svg width="22" height="21" viewBox="0 0 22 21" fill="none" xmlns="http://www.w3.org/2000/svg">
<path d="M4.92446 20.5068H0.363393V7.29665H4.92446V20.5068ZM2.64147 5.49466C1.18299 5.49466 0 4.40816 0 3.09642C1.04392e-08 2.46634 0.278297 1.86207 0.77367 1.41653C1.26904 0.971001 1.94091 0.720703 2.64147 0.720703C3.34204 0.720703 4.0139 0.971001 4.50928 1.41653C5.00465 1.86207 5.28295 2.46634 5.28295 3.09642C5.28295 4.40816 4.09946 5.49466 2.64147 5.49466ZM21.9951 20.5068H17.4438V14.0762C17.4438 12.5436 17.4095 10.5782 15.0725 10.5782C12.7011 10.5782 12.3377 12.2433 12.3377 13.9658V20.5068H7.78152V7.29665H12.156V9.09864H12.2198C12.8287 8.06073 14.3162 6.9654 16.5354 6.9654C21.1514 6.9654 22 9.6993 22 13.2503V20.5068H21.9951Z" fill="#F9F9F9"/>
</svg>
