<svg width="22" height="24" viewBox="0 0 22 24" fill="none" xmlns="http://www.w3.org/2000/svg">
<path d="M21.3722 16.8149L16.5597 14.695C16.3542 14.6049 16.1257 14.5859 15.9087 14.6409C15.6917 14.6958 15.4979 14.8218 15.3566 14.9997L13.2254 17.6762C9.88056 16.0552 7.18876 13.2884 5.61172 9.85034L8.21563 7.65969C8.38909 7.51468 8.51186 7.31553 8.56535 7.09239C8.61885 6.86925 8.60016 6.63427 8.51212 6.42303L6.44961 1.47639C6.35298 1.24867 6.18208 1.06275 5.96637 0.950678C5.75066 0.838607 5.50366 0.807415 5.26797 0.862479L0.799219 1.92247C0.571987 1.97641 0.36925 2.10792 0.224097 2.29554C0.0789445 2.48316 -5.2345e-05 2.71581 2.60228e-08 2.95552C2.60228e-08 14.2842 8.93321 23.4487 19.9375 23.4487C20.1708 23.4489 20.3972 23.3677 20.5799 23.2185C20.7625 23.0693 20.8905 22.8609 20.943 22.6272L21.9742 18.0339C22.0275 17.7905 21.9965 17.5356 21.8866 17.3131C21.7767 17.0906 21.5948 16.9145 21.3722 16.8149Z" fill="#F9F9F9"/>
</svg>
