<svg width="36" height="39" viewBox="0 0 36 39" fill="none" xmlns="http://www.w3.org/2000/svg">
<path fill-rule="evenodd" clip-rule="evenodd" d="M21.1616 37.6563C26.4894 39.6394 32.2984 36.2475 33.1898 30.633L35.5911 15.5088C36.2896 11.1095 33.6649 6.86099 29.418 5.51696L15.6393 1.15626C10.5644 -0.449856 5.21187 2.67553 4.1164 7.8846L1.14211 22.0275C0.225394 26.3866 2.63531 30.7605 6.80993 32.3144L21.1616 37.6563ZM16.8152 30.072C22.0057 31.8433 27.5601 28.6 28.5685 23.2091L29.2073 19.794C30.0612 15.2291 27.3016 10.7641 22.8368 9.48645L19.6756 8.58188C14.7488 7.17204 9.64081 10.1546 8.44717 15.1383L7.68131 18.3359C6.59961 22.8522 9.13188 27.45 13.527 28.9499L16.8152 30.072Z" fill="#4D53F2"/>
</svg>
