<svg width="22" height="19" viewBox="0 0 22 19" fill="none" xmlns="http://www.w3.org/2000/svg">
<path d="M19.7386 5.12443C19.7525 5.32529 19.7525 5.5262 19.7525 5.72707C19.7525 11.8537 15.2157 18.9131 6.92385 18.9131C4.36928 18.9131 1.9962 18.1526 0 16.8326C0.362957 16.8756 0.711906 16.89 1.08883 16.89C3.19666 16.89 5.13704 16.1583 6.68654 14.91C4.7043 14.8669 3.04313 13.5325 2.47079 11.6959C2.75 11.7389 3.02917 11.7677 3.32234 11.7677C3.72715 11.7677 4.132 11.7102 4.50888 11.6098C2.4429 11.1794 0.893363 9.31412 0.893363 7.06145V7.00408C1.49359 7.34844 2.19162 7.56366 2.93141 7.59232C1.71694 6.7601 0.921293 5.33965 0.921293 3.73264C0.921293 2.87176 1.1446 2.08261 1.53549 1.39389C3.75504 4.20614 7.09135 6.04268 10.8324 6.24359C10.7626 5.89923 10.7207 5.54056 10.7207 5.18184C10.7207 2.62783 12.7309 0.547363 15.2296 0.547363C16.5278 0.547363 17.7004 1.10694 18.524 2.01088C19.543 1.81002 20.5202 1.42259 21.3857 0.891723C21.0506 1.96786 20.3387 2.8718 19.4035 3.44569C20.3109 3.3453 21.1903 3.08698 21.9999 2.72831C21.3858 3.64656 20.618 4.46437 19.7386 5.12443Z" fill="#F9F9F9"/>
</svg>
